<svg xmlns="http://www.w3.org/2000/svg" viewBox="0 0 74.76 74.82"><defs><style>.cls-1{fill:#f8cf2b;}</style></defs><g id="Layer_2" data-name="Layer 2"><g id="Layer_1-2" data-name="Layer 1"><path id="em-logo-yellow" class="cls-1" d="M74.76,37.5V71.82c0,2.16-.84,3-3,3H3c-2.15,0-3-.84-3-3V3C0,.84.83,0,3,0h68.8c2.14,0,3,.84,3,3ZM33.94,25.19H19.47a3.27,3.27,0,0,0-.83,0c-.17,0-.41.25-.41.39,0,1.33,0,2.66,0,4.1H29.69v4.45H19c-.32,0-.8-.16-.8.43,0,1.31,0,2.62,0,4H29.69v4.52H18.2c0,1.25,0,2.4,0,3.54,0,.71.23.88.91.88,4.67,0,9.34,0,14,0,.26,0,.53,0,.84-.06V46.39c0-3.78,0-7.55,0-11.33s1.87-6,5.22-6.43,5.1.7,5.13,4.08c0,.31,0,.62,0,.93V47.49H48.6v-1c0-3.83,0-7.67,0-11.5,0-5,3-6.42,6.34-6.36,2.76,0,4,1.33,4,4.06V47.47h4.4V46.4q0-6.16,0-12.33c0-1-.06-2-.16-2.93a6,6,0,0,0-4.69-5.57,11.32,11.32,0,0,0-6.37.15,9,9,0,0,0-4.16,2.93c-1.55-2.75-4-3.49-6.87-3.45a9.19,9.19,0,0,0-7.12,3.61Zm-22.44,0V47.47H16c0-.29,0-.51,0-.73V26c0-.14.05-.31,0-.42s-.26-.4-.4-.4C14.24,25.19,12.9,25.2,11.5,25.2Z"/></g></g></svg>