<svg xmlns="http://www.w3.org/2000/svg" viewBox="0 0 1366 768"><path d="M191.5 117.6c0 9.3-12.3 18.4-29.2 24-.9.3-1.8.6-2.8.9.3 1.4.6 2.7.9 4 3.4 16.9.8 30.8-7.2 35.4-7.7 4.4-20.1.1-32.7-10.8-1.4-1.2-2.7-2.4-4-3.6-1 1-2.1 1.9-3.1 2.9-13 11.4-26.3 16.1-34.3 11.5-7.7-4.4-10.1-17.4-7-33.7.4-1.8.7-3.5 1.2-5.3-1.4-.4-2.7-.8-4-1.3C53 136 41 126.8 41 117.6c0-8.9 11.3-17.5 27-22.9 1.7-.6 3.6-1.2 5.5-1.7-.4-1.6-.8-3.3-1.1-4.9-3.2-16.6-.9-29.8 6.8-34.3 8-4.7 21.4.3 34.8 12.2.8.7 1.6 1.5 2.4 2.3 1.2-1.1 2.4-2.3 3.7-3.4 12.8-11.1 25.4-15.7 33.1-11.3 8 4.6 10.4 18.7 6.8 36.2-.2 1.1-.5 2.2-.7 3.3l4.8 1.5c15.8 5.5 27.4 14.1 27.4 23zm-109.2.2c-2.8-6.1-5.2-12.3-7.2-18.7-1.7.5-3.4 1-5.1 1.6-13.4 4.7-22.7 11.6-22.7 16.9.6 3.6 2.6 6.7 5.5 8.8 5.1 4.1 12.3 7.2 18.5 9.2 1.2.4 2.4.8 3.6 1.1 2.1-6.4 4.6-12.8 7.4-18.9zm29.8 45.1c-4.6-4.9-8.8-10.2-12.7-15.7-6.7-.5-13.4-1.5-20-2.9-.4 1.6-.8 3.3-1.1 4.9-2.6 14-.7 24.3 4 27 3.4 1.3 7.1 1.2 10.4-.4 6.1-2.4 11.7-5.9 16.6-10.4.9-.7 1.9-1.5 2.8-2.5zm-33.6-76c.3 1.5.6 3.1 1 4.6 6.5-1.4 13.1-2.5 19.8-3.1 3.9-5.5 8.1-10.7 12.6-15.6-.8-.7-1.5-1.4-2.2-2.1-11.6-10.2-22.5-14.3-27.5-11.4-4.6 2.6-6.5 13.4-3.7 27.6zm7.4 38.3c-1.9 4.5-3.5 8.8-4.8 13.1 4.5 1 9.1 1.7 13.6 2.2-1.6-2.5-3.1-5.1-4.6-7.6-1.4-2.5-2.8-5.1-4.2-7.7zm0-14.8c1.3-2.6 2.7-5.1 4.2-7.6 1.4-2.5 3-5 4.5-7.5-4.7.6-9.2 1.4-13.4 2.3 1.3 4.1 2.9 8.4 4.7 12.8zm9.7 19.3c2.3 3.9 4.7 7.7 7.2 11.5 4.3.3 8.8.4 13.4.4s9.2-.1 13.6-.5c2.5-3.8 4.9-7.6 7.1-11.5 2.3-3.9 4.4-7.9 6.3-12-2-4-4.1-8-6.4-11.9-2.3-3.9-4.6-7.7-7.1-11.4-4.4-.3-8.9-.5-13.5-.5s-9.1.2-13.5.5c-2.5 3.7-4.9 7.5-7.2 11.4-2.2 3.9-4.4 7.9-6.3 11.9 2.1 4.2 4.2 8.2 6.4 12.1zm7.2-11.9c0-7.4 6-13.5 13.5-13.5s13.5 6 13.5 13.5-6 13.5-13.5 13.5-13.5-6.1-13.5-13.5zm4.7-30c5.8-.3 11.7-.3 17.5 0-2.7-3.6-5.6-7.2-8.7-10.5-2.9 3.2-5.9 6.7-8.8 10.5zm17.7 59.9c-2.9.1-5.9.2-8.9.2-2.9 0-5.9-.1-8.7-.2 2.9 3.9 5.9 7.4 8.9 10.7 3.1-3.4 6-6.9 8.7-10.7zm-4.5-74.9c4.5 4.9 8.7 10.1 12.5 15.6 6.6.6 13.3 1.6 19.8 3.1.3-1 .5-1.9.7-2.9 3.1-15.1 1.2-26.7-3.8-29.5-4.6-2.7-14.8 1.1-25.8 10.6-1.1 1-2.2 2-3.4 3.1zm33.5 74.9c-.2-1.2-.5-2.4-.8-3.6-6.6 1.5-13.3 2.5-20 3.1-3.8 5.5-7.9 10.8-12.4 15.8 1.3 1.2 2.5 2.3 3.7 3.4 10.8 9.2 20.7 12.8 25.4 10.1 2.8-2.3 4.6-5.6 4.9-9.2.9-6.6.6-13.2-.8-19.6zm-16.4-7.3c4.6-.5 9.3-1.3 13.8-2.4-1.4-4.4-3.1-8.8-5-13-1.4 2.6-2.8 5.3-4.3 7.8-1.4 2.6-2.9 5.1-4.5 7.6zm13.6-42.8c-4.2-1-8.8-1.8-13.5-2.4 1.6 2.4 3.1 4.9 4.5 7.4 1.5 2.5 2.9 5.1 4.3 7.7 1.7-4.1 3.3-8.4 4.7-12.7zm33.8 20c0-5.4-9.6-12.3-23.3-17-1.4-.5-2.9-.9-4.4-1.4-2 6.3-4.4 12.5-7.2 18.5 2.9 6.1 5.4 12.3 7.5 18.8.9-.2 1.7-.5 2.5-.8 14.6-4.9 24.9-12.4 24.9-18.1zM352.1 115.7v56.4c0 3.5-1.4 4.9-4.9 4.9H234.1c-3.5 0-4.9-1.4-4.9-4.9V59c0-3.6 1.4-4.9 4.9-4.9h113.1c3.5 0 4.9 1.4 4.9 4.9v56.7zM285 95.4h-23.7c-.5 0-.9-.1-1.4 0-.3.1-.7.4-.7.6-.1 2.2 0 4.4 0 6.7h18.9v7.3h-17.6c-.5 0-1.3-.3-1.3.7v6.6h18.9v7.4h-18.9c0 2.1.1 3.9 0 5.8-.1 1.2.4 1.5 1.5 1.5h23c.4 0 .9-.1 1.4-.1v-1.8c0-6.2-.1-12.4.1-18.6.1-6 3.1-9.8 8.6-10.6 5.5-.8 8.4 1.1 8.4 6.7v24.3h7v-1.7-18.9c0-8.1 5-10.6 10.4-10.5 4.5.1 6.5 2.2 6.5 6.7V131.9h7.2v-1.8-20.3c0-1.6-.1-3.2-.3-4.8-.5-4.7-3.2-7.9-7.7-9.1-3.5-.9-7-.9-10.5.2-2.7.9-4.9 2.6-6.8 4.8-2.5-4.5-6.6-5.7-11.3-5.7-4.7.1-8.4 2.1-11.7 5.9v-5.7zm-36.9.1v36.6h7.3c0-.5.1-.8.1-1.2v-34c0-.2.1-.5 0-.7-.2-.3-.4-.7-.7-.7-2.2-.1-4.4 0-6.7 0z"/></svg>